<svg width="300" height="300" viewBox="0 0 300 300" fill="none" xmlns="http://www.w3.org/2000/svg">
<path fill-rule="evenodd" clip-rule="evenodd" d="M150 300C232.843 300 300 232.843 300 150C300 67.1573 232.843 0 150 0C67.1573 0 0 67.1573 0 150C0 232.843 67.1573 300 150 300ZM115 130C123.284 130 130 123.284 130 115C130 106.716 123.284 100 115 100C106.716 100 100 106.716 100 115C100 123.284 106.716 130 115 130ZM200 115C200 123.284 193.284 130 185 130C176.716 130 170 123.284 170 115C170 106.716 176.716 100 185 100C193.284 100 200 106.716 200 115ZM91.5 160C91.5 155.858 88.1421 152.5 84 152.5C79.8579 152.5 76.5 155.858 76.5 160C76.5 184.013 85.5077 202.637 99.4453 215.21C113.253 227.665 131.472 233.806 149.471 233.875C167.472 233.944 185.715 227.94 199.547 215.498C213.51 202.938 222.5 184.238 222.5 160C222.5 155.858 219.142 152.5 215 152.5C210.858 152.5 207.5 155.858 207.5 160C207.5 180.262 200.115 194.812 189.516 204.346C178.785 213.998 164.278 218.931 149.529 218.875C134.778 218.819 120.247 213.773 109.492 204.072C98.8673 194.488 91.5 179.987 91.5 160Z" fill="#00BFFF"/>
</svg>
